# xmcd
# 
# Track frame offsets:
#   150
#   12895
#   27451
#   41600
#   53545
#   75996
#   91074
#   109959
#   123675
#   136747
#   160142
#   173863
#   192104
#   204433
#   216552
#   230648
#   247493
# 
# Disc length: 3473 seconds
# 
# Revision: 0
# Processed by: cddbd v1.5.2PL0 Copyright (c) Steve Scherf et al.
# Submitted via: VOLTOCDX V1.0.24 
# 
DISCID=e90d8f11
DTITLE=Various Artist - The Greatest Hits of Conway Twitty
DYEAR=2010
DGENRE=Karaoke
TTITLE0=Workin' Man Blues - Merle Haggard
TTITLE1=Swinging Doors - Merle Haggard
TTITLE2=Bottle Let Me Down, The - Merle Haggard
TTITLE3=Mama Tried - Merle Haggard
TTITLE4=Sing Me Back Home - Merle Haggard
TTITLE5=My Friends Are All Gonna Be Strangers - Merle Haggard
TTITLE6=Branded Man - Merle Haggard
TTITLE7=Fightin' Side Of Me, The - Merle Haggard
TTITLE8=I Threw Away The Rose - Merle Haggard
TTITLE9=Daddy Frank - Merle Haggard
TTITLE10=Someday We'll Look Back - Merle Haggard
TTITLE11=Okie From Muskogee - Merle Haggard
TTITLE12=Lonesome Fugitive - Merle Haggard
TTITLE13=Hungry Eyes - Merle Haggard
TTITLE14=I Take A Lot Of Pride In What I Am - Merle Haggard
TTITLE15=Carolyn - Merle Haggard
TTITLE16=It's Not Love (But It's Not Bad) - Merle Haggard
EXTD=
EXTT0=
EXTT1=
EXTT2=
EXTT3=
EXTT4=
EXTT5=
EXTT6=
EXTT7=
EXTT8=
EXTT9=
EXTT10=
EXTT11=
EXTT12=
EXTT13=
EXTT14=
EXTT15=
EXTT16=
PLAYORDER=
